<svg xmlns="http://www.w3.org/2000/svg" viewBox="0 0 1046.66 105.77"><defs><style>.cls-1{fill:#fff;}</style></defs><g id="レイヤー_2" data-name="レイヤー 2"><g id="レイヤー_1-2" data-name="レイヤー 1"><polygon class="cls-1" points="827.33 8.47 856.49 68.67 856.49 8.47 872.69 8.47 872.69 105.67 856.49 105.67 827.33 45.47 827.33 105.67 811.12 105.67 811.12 8.47 827.33 8.47"/><path class="cls-1" d="M352.31,105.57,338.09,59.14A28.24,28.24,0,0,0,349,36.82v-.7c0-15.4-12.34-28-27.41-28H287.45v.35h0v97.2h16.2V64.82h17.94q.65,0,1.29,0l12.51,40.88ZM303.65,49V24h17.94a11.19,11.19,0,0,1,8,3.47,12.37,12.37,0,0,1,3.54,8.7v.7a12.37,12.37,0,0,1-3.54,8.7A11.22,11.22,0,0,1,322.06,49h-4v0Z"/><path class="cls-1" d="M493.85,25.46a11.5,11.5,0,0,1,8.22,3.7,13.6,13.6,0,0,1,3.68,9.48V49h16.1V36.22a28.08,28.08,0,0,0-28-28h-5.56a28.08,28.08,0,0,0-28,28v41.2a28.08,28.08,0,0,0,28,28h5.56a28.08,28.08,0,0,0,28-28V65.17h-16.1V75a13.59,13.59,0,0,1-3.68,9.48,11.46,11.46,0,0,1-8.22,3.7h-5.56a11.44,11.44,0,0,1-8.22-3.7A13.59,13.59,0,0,1,476.39,75V38.64a13.6,13.6,0,0,1,3.68-9.48,11.48,11.48,0,0,1,8.22-3.7h5.56"/><path class="cls-1" d="M406.56,25.46a11.52,11.52,0,0,1,8.23,3.7,13.65,13.65,0,0,1,3.68,9.48V75a13.63,13.63,0,0,1-3.68,9.48,11.48,11.48,0,0,1-8.23,3.7H401a11.46,11.46,0,0,1-8.23-3.7A13.63,13.63,0,0,1,389.1,75V38.64a13.65,13.65,0,0,1,3.68-9.48,11.5,11.5,0,0,1,8.23-3.7h5.55m0-17.24H401a28.08,28.08,0,0,0-28,28v41.2a28.08,28.08,0,0,0,28,28h5.55a28.09,28.09,0,0,0,28-28V36.22a28.09,28.09,0,0,0-28-28Z"/><path class="cls-1" d="M935,25.46a10.91,10.91,0,0,1,10.76,10.76v41.2A10.91,10.91,0,0,1,935,88.18H917.59V25.46H935m-5.55,80H935a28.09,28.09,0,0,0,28-28V36.22a28.09,28.09,0,0,0-28-28H901.39v97.2Z"/><path class="cls-1" d="M1046.66,35.26h-17.24c0-6.14-4.93-12-10.76-12l-5,0c-10.48.58-11.15,10.55-6.69,14.67l33.16,30c14.84,13.09,2,37.87-20.16,37.76h-5.37v0c-20,0-28-12.4-28-27.39h17.24c0,6.14,4.93,12,10.76,12h5c10.49-.59,11.16-10.56,6.7-14.68l-33.16-30c-14.84-13.1-2-37.87,20.16-37.77h5.37C1038.63,7.88,1046.66,20.28,1046.66,35.26Z"/><polygon class="cls-1" points="740.75 105.67 724.55 105.67 747.64 8.47 763.85 8.47 786.89 105.67 770.69 105.67 755.72 42.53 740.75 105.67"/><polygon class="cls-1" points="643.08 8.22 659.28 8.22 659.28 89.22 704.64 89.22 704.64 105.42 643.08 105.42 643.08 8.22"/><polygon class="cls-1" points="550.2 8.47 566.4 8.47 566.4 48.97 581.94 48.97 594.34 8.47 611.25 8.57 596.4 57.07 611.25 105.57 594.34 105.67 581.94 65.17 566.4 65.17 566.4 105.67 550.2 105.67 550.2 8.47"/><path class="cls-1" d="M21.72,62.72c2.07.18,4.14.28,6.21.49,4.2.42,8.38,1,12.58,1.31,5.26.36,10.53.85,15.8.85a9.68,9.68,0,0,1,1.78.11c2.88.51,5.79.5,8.69.76.76.07,1.54.12,2.3.24,3.41.55,6.82,1.12,10.23,1.66,1.65.27,3.3.5,5,.74L96.1,70.59c3.71.53,7.42,1.06,11.15,1.3,3.14.19,6.28.33,9.41.61,1.65.15,3.3.38,5,.46,3.55.18,7.11.2,10.66.25,7.35.08,14.69.5,22,.38,3.37-.06,6.75.2,10.13.35,6.93.3,13.86.64,20.78,1s13.85,1,20.78,1a13.91,13.91,0,0,1,2.66.21,56.64,56.64,0,0,0,7.09.66,51.19,51.19,0,0,1,8,.76,6.06,6.06,0,0,0,1.59.11c2.43-.1,4.86-.22,7.28-.34s4.74-.34,7.11-.36c1.66,0,3.32-.06,5-.17v0c0-.38-1.77-.32-3.25-1a6.08,6.08,0,0,0-3.16-.48c-2.22.23-2.68-1.37-2.68-1.37a3.74,3.74,0,0,0-.14-2.54c-.6-.94-3.37,1.81-2.34.68s1-1.6,1-1.6l-.57-.3a20.18,20.18,0,0,1-6.14-.42,3.35,3.35,0,0,0-.71,0c-6.69-.42-13.39-.11-20.08-.27-.36,0-.71,0-1.07.06-2.9.11-5.8.31-8.7.32s-5.8.29-8.7.46c-3.61.21-7.22.6-10.83.57-8.83-.09-17.66-.37-26.48-.58-.95,0-1.9,0-2.85,0-4.86,0-9.71.11-14.57.11-2.31,0-4.62-.12-6.93-.24-2.78-.14-5.57-.2-8.34-.56-2.6-.34-5.2-.55-7.8-.73a41.62,41.62,0,0,1-7.07-1A54.75,54.75,0,0,0,89.86,66c-3.57,0-7.08-.77-10.61-1.19-2.48-.3-5-.76-7.43-1-4.55-.42-9.11-.54-13.66-1a53.82,53.82,0,0,0-10.31-.27,12.76,12.76,0,0,1-2-.07c-3.13-.26-6.27-.5-9.4-.81-2.36-.23-4.73-.42-7.08-.87a108,108,0,0,1-15.53-4c-4,1.56-2.75,3.59-5.06,3.49-3.31-.13-4-1.36-6-2.64C-.85,55.21-.2,55.47.7,58.4c1.62.38,3.24.81,4.84,1.34A71.24,71.24,0,0,0,21.72,62.72Z"/><path class="cls-1" d="M27.67,69.71c2.72.23,5.45.24,8.17.46,2.95.24,5.91.52,8.86.94a34.55,34.55,0,0,1,8.07,1.69,23.27,23.27,0,0,1,7.35,4.14,10.74,10.74,0,0,0,4.6,2.47,35.06,35.06,0,0,0,4.4.91c1.82.21,3.65.47,5.47.81,2.93.55,5.87,1.11,8.79,1.79,4.26,1,8.5,2.16,12.76,3.19a49.65,49.65,0,0,0,6.3,1.49c2.6.27,5.19.59,7.79.78,3.2.24,6.4.37,9.59.57a147.64,147.64,0,0,0,15.46-.21q3.65-.15,7.29-.18a27.7,27.7,0,0,1,3,.22c1.3.13,2.6.35,3.9.42a66.87,66.87,0,0,1,9.19,1.3,27.23,27.23,0,0,1,5.53,1.73,7.93,7.93,0,0,0,1.9.61c1.88.29,3.77.58,5.66.71a41.59,41.59,0,0,1,6.36,1,20.36,20.36,0,0,0,6.55.39,55.92,55.92,0,0,0,9.87-1.66c3.6-1,7.2-2,10.75-3.26a17.09,17.09,0,0,1,2.08-.62,48,48,0,0,1,13.1-1.24c2.73.1,5.45.28,8.18.41a41.79,41.79,0,0,0,6.23,0l8.8-3.73.82-1c-2.75.29-5.51.5-8.27.69-3.25.23-6.51.43-9.76.47a79.54,79.54,0,0,0-8.17.25A85.5,85.5,0,0,0,203.51,88a65.23,65.23,0,0,1-14.07,2.64c-2.9.18-5.8.55-8.7-.14a4.38,4.38,0,0,0-.88-.09,29.65,29.65,0,0,1-6.69-1.19c-3.89-1.06-7.73-2.42-11.66-3.28a49.92,49.92,0,0,0-12.39-1.21c-4.92.17-9.83.52-14.74.81s-10.06.62-15.09.91a8.06,8.06,0,0,1-1.77-.09c-2.65-.38-5.29-.84-7.93-1.43q-10.25-2.33-20.54-4.35a69.16,69.16,0,0,1-13.71-4,98.9,98.9,0,0,0-14-4.68c-2.79-.71-5.62-1.14-8.43-1.72-1.58-.33-3.16-.6-4.76-.78-3.13-.36-6.25-.82-9.38-1.22-2.36-.31-4.71-.67-7.08-.86-2.89-.24-5.8-.31-8.7-.47a21.63,21.63,0,0,0-5.5.38,74.53,74.53,0,0,0-8,1.93,13.31,13.31,0,0,1,2.84,2.62A13.16,13.16,0,0,1,14,73.6a11.81,11.81,0,0,0,1.27-.66A20.68,20.68,0,0,1,27.67,69.71Z"/><path class="cls-1" d="M68.72,47.65c6,1.2,12.16,1.35,18.24,2,3.54.39,7.1,0,10.66.15,8.65.3,17.29.66,25.94,1,3.73.16,7.47.27,11.19.7,3.31.39,6.62.65,9.93.76,4.92.17,9.82.93,14.73,1.16,9.18.44,18.36.81,27.54,1.26,6.1.29,12.2.52,18.31.27q3.38-.13,6.74-.32c2.37-.13,4.74-.3,7.11-.42l3.53-.18c0-.08,0-.16,0-.26,0-.7.76-1.39,1-1.89-3.19.21-6.38.44-9.58.5-3.5.05-7,.25-10.48.23s-6.76-.17-10.13-.35c-7.17-.36-14.33-.65-21.49-1.33-8.39-.8-16.81-1-25.23-1.25-6.57-.2-13.14-.75-19.72-.54a12.74,12.74,0,0,1-2.31-.12,88,88,0,0,0-9.58-.71c-7.23-.37-14.45-.66-21.68-1a51.29,51.29,0,0,1-12-1.78,11.91,11.91,0,0,0-2.3-.32c-2.07-.17-4.14-.21-6.21-.47-4.48-.57-9-1.19-13.43-1.9l-1.25-.2a2.62,2.62,0,0,1-.11.64c-.3,1.11-.78-.37-1.42,1.23l.07,1.27.86.14C61.3,46.54,65,46.92,68.72,47.65Z"/><path class="cls-1" d="M72.83,42.24c4.38.41,8.75.6,13.12,1.13,4,.48,7.92.75,11.88,1a48,48,0,0,1,5.85.64,38.08,38.08,0,0,0,4,.69c4.73.44,9.46.86,14.19,1.18,4.21.29,8.41.47,12.62.62,11.73.39,23.45,1.3,35.19,1.21,2.61,0,5.19.56,7.8.69l11.55.6c8.94.49,17.88.72,26.83.64.42,0,.83,0,1.24,0,1.26-.06,2.52-.14,3.77-.21a1.51,1.51,0,0,1-.16-.7L218.2,48.1l-2.76,0c-.65,0-1.3,0-1.95,0-5.75.12-11.49.37-17.24.09L170,46.87c-12.32-.59-24.65-.76-37-2-3.42-.35-6.86-.49-10.28-1-3.77-.5-7.56-.78-11.34-1.16-.3,0-.59-.08-.89-.12L99.17,41.31c-2.59-.31-5.2-.54-7.78-1a105.66,105.66,0,0,0-13.46-1.54,14.24,14.24,0,0,1-1.59-.15c-3-.39-6-.76-9-1.19-2.48-.35-4.95-.73-7.42-1.18s-4.78-.9-7.18-1.37l-.06,0c-1,.65-.14.05-1,.65-1.22.8,0,1.42.07,1.27a5.89,5.89,0,0,1,1.64,1.51c2.84.86,5.69,1.7,8.56,2.3A96.78,96.78,0,0,0,72.83,42.24Z"/><path class="cls-1" d="M113.45,101.43c-2.08-.12-.71.06-4.25,0h-.44c3.57.33,7.14.6,10.7.92A25.51,25.51,0,0,0,113.45,101.43Z"/><path class="cls-1" d="M68.84,103.07a18,18,0,0,0,4.92-.26c2.53-.36,7.15.66,9,.79s9.25-1,10.51-1.15,4.62,0,6.17-.82a26,26,0,0,0-7.6.48,18.45,18.45,0,0,1-4.43.48c-6-.21-12-.76-17.92-1.38a9.67,9.67,0,0,1-1.4-.29,4.39,4.39,0,0,1-3.16-3.16,3.64,3.64,0,0,0-2.76-2.66A53.72,53.72,0,0,0,53,93.3a73.83,73.83,0,0,0-12.08-.16c-.83.08-1.66.14-2.49.21.45.2.93.39,1.44.58l.58.2c3.13-.23,6.25-.57,9.36.23a26.26,26.26,0,0,1,9.75,4.35,5,5,0,0,1,2,2.62,3,3,0,0,0,.49,1,4.09,4.09,0,0,0,1.12.41C65.76,103.28,67.92,102.92,68.84,103.07Z"/><path class="cls-1" d="M37.18,91.56c4.63,0,9.25.1,13.87.09a59.49,59.49,0,0,1,12.19,1.66,14.65,14.65,0,0,1,5,1.84c.89.55,1,.78.68,2-.34,1.54-.13,2.06,1,2.37a5.15,5.15,0,0,0,1.23.18,43.59,43.59,0,0,0,5,.07,62.12,62.12,0,0,1,8.52,0c1.84.09,3.68,0,5.51,0a60.06,60.06,0,0,1,11.36.63c2,.35,4,.68,6,.88l1.28.13h.44c3.54,0,2.17-.14,4.25,0a25.51,25.51,0,0,1,6,.93l.78.07c1,.08,2,.24,3,.4a8.55,8.55,0,0,0,2.06-1.3,2.45,2.45,0,0,1,.62-.35h-.25a20.05,20.05,0,0,1-3.55-.14c-4.9-.62-9.79-1.31-14.68-2-2.65-.36-5.31-.64-8-1.06a23,23,0,0,0-5-.25c-.71,0-1.42.11-2.13.11-3.49,0-7-.28-10.48-.16a4.93,4.93,0,0,1-4.18-1.63,3.26,3.26,0,0,0-1.11-.75c-2.13-1-4.27-1.93-6.42-2.85A6.18,6.18,0,0,0,68.58,92c-5.35-.78-10.68-2-16.09-1.79a17,17,0,0,1-2.13-.19c-.59,0-1.18-.08-1.77-.1-2.07-.06-4.15,0-6.22-.19-3.42-.23-6.84-.54-10.27-.84a17.94,17.94,0,0,0,3.11,2.65C35.87,91.56,36.52,91.55,37.18,91.56Z"/><path class="cls-1" d="M92.3,9.62l2,.76,2.92-.06,1.65.29.49-.08c-2.42-.51-4.83-1-7.23-1.64L89.32,8.2l.73.35Z"/><path class="cls-1" d="M71.5,9.63A166.52,166.52,0,0,0,88,14.41c4.68,1.07,9.37,2,14.08,2.6a103.24,103.24,0,0,0,11.34,1.16c.83,0,1.66.12,2.49.21,2.18.23,4.35.49,6.53.73-.08-.17-.18-.35-.28-.53l-1.62-1.71-2.88-.43-1.73-1.71L114.8,14l-1.67-.45c-1.17-.31-.69-.18-.78-.57-1-.15-2-.32-3-.49-3.33-.6-6.66-1.23-10-1.92l-.49.08-1.65-.29-2.92.06-2-.76L90.05,8.55l-.73-.35c-2.14-.51-4.29-1-6.44-1.33A61.32,61.32,0,0,1,68.79,3C66.7,2.08,64.6,1.19,62.49.34,60.42.22,57.23.06,54.74,0,51.89,0,51.68.12,51.8.23a4.49,4.49,0,0,1,.46.41l.74.83-.12,1.27a5.61,5.61,0,0,1-.42,1.88,57.93,57.93,0,0,0,7.34,2A92.89,92.89,0,0,1,71.5,9.63Z"/><path class="cls-1" d="M57.87,55.07c5.37.64,10.75,1,16.12,1.78,2.53.35,5.06.74,7.58,1.23,2.82.55,5.61,1.33,8.42,1.85q6.08,1.09,12.18,1.94c3.59.48,7.19,1.18,10.81,1a78.86,78.86,0,0,1,8.7.14c8.89.53,17.78.32,26.66.57.3,0,.59,0,.89,0,4.91-.21,9.83-.41,14.74-.63,1.54-.07,3.08-.27,4.62-.26a96.09,96.09,0,0,0,10.29-.78c4.72-.49,9.46-.81,14.19-1.08,2.37-.14,4.74-.23,7.1-.31,3.38-.13,6.75-.27,10.13-.32,3.85-.07,7.7,0,11.55-.08.53,0,1.07-.07,1.6-.13l2.05-.2c-.75-.9-.74-.58-1.91-1.65-1.34-1.25,0,0-.06-1.11s0,0-.76-.62a1,1,0,0,1-.29-.35l-3.91.22q-3.28.18-6.57.3c-2.72.09-5.45.06-8.17.25-5.75.41-11.49.4-17.24.39-7,0-14-.06-21,0-5.92.07-11.84,0-17.76.23-3,.12-6.05.1-9.06.27-5.1.3-10.19,0-15.29,0-4.62.07-9.21-.9-13.83-1.13a2,2,0,0,1-.35,0c-3.13-.39-6.26-.77-9.38-1.17-2.66-.34-5.31-.7-8-1-3.66-.44-7.32-.89-11-1.28-4-.43-8-.78-12.05-1.2-2.13-.22-4.25-.46-6.37-.78-4.48-.66-8.94-1.45-13.4-2.27-1.66-.3-3.31-.62-4.95-1a6.3,6.3,0,0,0-2.76.41c-2.33.9-5.15,2.35-6.52,2.79q2.68.83,5.42,1.41C46.18,53.72,52,54.37,57.87,55.07Z"/><path class="cls-1" d="M77.9,23.26a4,4,0,0,0,1.55.49,50.64,50.64,0,0,1,8.75,2c2.26.66,4.5,1.49,6.78,2,4.68,1,9.37,1.94,14,3A251,251,0,0,0,135.31,35c3.66.46,7.3,1,11,1.58,1,.15,2,.36,3,.5l7.26,1c4.89.64,9.78,1.31,14.7,1.46,3,.15,5.92.14,8.89.06,3.5-.09,7-.25,10.47-.63,4.44-.48,8.88-.84,13.31-1.44h0l-1.1,0L201,36.14l-2.17.36a29.59,29.59,0,0,0-5.43.74,6,6,0,0,1-2.64-.16q-5.62.47-11.27.49a145,145,0,0,1-17.39-1.25c-.35,0-.7-.12-1-.18l-4.94-.87c-2.93-.52-5.88-.94-8.8-1.61q-2.85-.64-5.69-1.32h-.11l-.12-.05c-4-.95-8-1.93-11.94-2.9a114,114,0,0,0-14.08-2.66,79.83,79.83,0,0,1-10.56-1.9,57.09,57.09,0,0,0-7.39-1.45c-4.48-.49-9-1-13.45-1.59a28.76,28.76,0,0,1-6.14-1.31c-5.09-1.89-10.26-3.26-15.43-4.67q-4.83-1.32-9.65-2.68l0,.07c-.28,1.43-1.45.41-1.45.41l-1.18.11a.26.26,0,0,0-.45.16.93.93,0,0,1-.91,1l-.67,0,0,.39c6.27,1.33,12.53,2.78,18.81,4.09A40.12,40.12,0,0,1,77.9,23.26Z"/><path class="cls-1" d="M141.65,32.34l-.23-.05.12.05Z"/><path class="cls-1" d="M32.78,85.12a11,11,0,0,0,4.82,1.52c5.08.4,10.16,1,15.26,1.11,1.24,0,2.48,0,3.73-.07a38,38,0,0,1,6.39.25c3.54.44,7.07.9,10.62,1.27A22.83,22.83,0,0,1,82.93,92a9.59,9.59,0,0,0,2.2.94,38.1,38.1,0,0,0,10.22,1.66,9.84,9.84,0,0,1,2.3.19,22.25,22.25,0,0,0,3.89.49c2.66.16,5.33.25,8,.57,4.25.52,8.49,1.2,12.73,1.82,1.59.23,3.17.54,4.77.68,4.63.4,9.27.63,13.91,1,1.21,0,2.42-.19,3.94-.21,2.37,0,3.76-1.34,8.78-2.87l.7-.19c-.81-.1-1.62-.17-2.43-.23a14.22,14.22,0,0,1-1.6-.17,95.69,95.69,0,0,0-14-1.48c-1.54-.07-3.07-.26-4.61-.44-3.12-.38-6.25-.8-9.37-1.19-.53-.06-1.07,0-1.6,0-1,0-1.9-.07-2.84-.13-4.44-.29-8.88-.46-13.31-1a60.71,60.71,0,0,1-8.8-1.61A50.66,50.66,0,0,0,86.65,88c-3.66-.32-7.32-.67-11-1-.53-.06-1.06-.13-1.59-.24q-5.26-1.14-10.53-2.3a15.87,15.87,0,0,1-2.08-.61,4.74,4.74,0,0,1-3.05-3,3,3,0,0,0-2.08-2A16.89,16.89,0,0,0,51,78a53.42,53.42,0,0,1-6.93,0c-4.74-.3-9.48-.15-14.21-.07-3.26.06-6.52.36-9.77.35-.76,0-1.51,0-2.27.05v0c-.13,1,2.32,2.5,3.23,2.48.44,0,1.59,1,2.71,2.09.91.13,1.83.26,2.75.41A16.91,16.91,0,0,1,32.78,85.12Z"/><path class="cls-1" d="M23.32,65.34c3.49.23,7,.59,10.46.94,1.89.19,3.78.47,5.67.72,2.88.39,5.77.9,8.66,1.17,4.2.4,8.37,1.17,12.55,1.77a22.83,22.83,0,0,1,3.49.87C68.6,72.2,73,73.6,77.47,75.05a23.27,23.27,0,0,0,7.22,1.14,12.78,12.78,0,0,1,2.31.18,67.59,67.59,0,0,0,12.77.84c2.61,0,5.21,0,7.82,0,1.24,0,2.49,0,3.73-.1a37.78,37.78,0,0,1,7.81.29q4.41.72,8.83,1.41a67.81,67.81,0,0,0,12.07.69c3.61-.08,7.22,0,10.84.11,3.07.13,6.17.09,9.2.94,2.61.73,5.24,1.37,7.82,2.31a39.12,39.12,0,0,0,12.28,2.39c1.42.05,2.84-.13,4.26-.13,3.5,0,7,.35,10.49,0a12.36,12.36,0,0,1,1.6.09c.76,0,1.54.08,2.3,0,3.55-.17,7.11-.34,10.66-.55,3.07-.19,6.15-.43,9.22-.67.83-.06,1.65-.28,2.48-.3,2.67-.08,5.33,0,8-.15,2.83-.12,5.69,0,8.49-.81a3.52,3.52,0,0,1,1.41-.1,17.76,17.76,0,0,0,5.09-.34l-.85-.84.29-1.27a3,3,0,0,1,.17-.63c-4.62.64-9.26,1-13.9,1.29q-5.77.33-11.54.7a87,87,0,0,1-12.08.24c-2-.17-4-.19-6-.32-5.62-.39-11.24-.78-16.86-1.23a22.69,22.69,0,0,1-4-.78,94.8,94.8,0,0,0-14.11-2.33c-5.43-.61-10.89-.7-16.34-.77-2.25,0-4.51.17-6.75.11-3.92-.1-7.82-.32-11.73-.5s-7.57-.64-11.36-.94c-4.25-.33-8.52-.5-12.79-.59a140.22,140.22,0,0,1-22.11-2.68c-5.82-1.06-11.62-2.27-17.43-3.3a67,67,0,0,0-8.32-1c-6.22-.28-12.41-1.18-18.63-1.45-.41,0-.83-.07-1.24-.12a164.07,164.07,0,0,0-16.66-1.58c-5.73-.17-11.44-.89-17.16-1.29C5.46,63.84,6,64.45,6,64.73a1.21,1.21,0,0,0,0,.18c3.94.16,7.89.35,11.84.48C19.65,65.45,21.49,65.22,23.32,65.34Z"/><path class="cls-1" d="M70.85,31.23c.71.07,1.42.1,2.12.23a38.45,38.45,0,0,0,7.1.45c2,0,3.91,0,5.86,0,3.91.17,7.82.33,11.72.8,4.13.5,8.26,1,12.36,1.82,5.93,1.14,11.86,2.19,17.82,2.89s11.78,1.79,17.68,2.48c2,.24,4,.59,6,.85,3.18.42,6.36,1,9.55,1.16a165.25,165.25,0,0,0,17.24.44c3.43-.16,6.86-.3,10.29-.58,7.7-.62,15.37-1.7,23.05-2.58.14-.34.27-.71.4-1-1.54.24-3.08.47-4.63.66-8,1-16,2.11-24.1,2.52-3.79.19-7.57.47-11.37.34-1.48,0-3,.06-4.44.06a26.17,26.17,0,0,1-2.66-.12c-1.72-.15-3.43-.35-5.14-.55-1.06-.12-2.12-.24-3.18-.41-3.24-.5-6.47-1.11-9.71-1.51-4.25-.53-8.48-1.25-12.73-1.79-4-.51-7.93-.58-11.86-1.29-2.18-.39-4.36-.65-6.53-1-2.65-.47-5.28-1.11-7.93-1.48a184.35,184.35,0,0,0-18.42-2c-2.84-.11-5.69-.28-8.53-.44-.83,0-1.65-.14-2.48-.23-3.9-.43-7.79-.92-11.69-1.28a98.74,98.74,0,0,1-10.78-1.51c-1.81-.38-3.63-.8-5.43-1.25l-.87-.21.31.8.21.43c1.2.27,2.41.53,3.62.78A169.19,169.19,0,0,0,70.85,31.23Z"/><path class="cls-1" d="M30.18,96Z"/><polygon class="cls-1" points="30.18 96.03 30.17 96.03 30.18 96.03 30.18 96.03"/></g></g></svg>